<?xml version="1.0" encoding="UTF-8"?>
<!DOCTYPE svg PUBLIC "-//W3C//DTD SVG 1.1//EN" "http://www.w3.org/Graphics/SVG/1.1/DTD/svg11.dtd">
<!-- Creator: CorelDRAW 2020 (64 Bit) -->
<svg xmlns="http://www.w3.org/2000/svg" xml:space="preserve" width="512px" height="512px" version="1.1" style="shape-rendering:geometricPrecision; text-rendering:geometricPrecision; image-rendering:optimizeQuality; fill-rule:evenodd; clip-rule:evenodd"
viewBox="0 0 512 512"
 xmlns:xlink="http://www.w3.org/1999/xlink"
 xmlns:xodm="http://www.corel.com/coreldraw/odm/2003">
 <defs>
  <style type="text/css">
   <![CDATA[
    .fil2 {fill:none}
    .fil1 {fill:#FCFCFD}
    .fil0 {fill:url(#id1)}
   ]]>
  </style>
   <clipPath id="id0">
    <path d="M0 0l512 0 0 512 -512 0 0 -512z"/>
   </clipPath>
  <linearGradient id="id1" gradientUnits="userSpaceOnUse" x1="11.12" y1="12.14" x2="478.12" y2="494.14">
   <stop offset="0" style="stop-opacity:1; stop-color:#10A4C8"/>
   <stop offset="0.219608" style="stop-opacity:1; stop-color:#1592CC"/>
   <stop offset="0.509804" style="stop-opacity:1; stop-color:#407ABD"/>
   <stop offset="1" style="stop-opacity:1; stop-color:#5661AA"/>
  </linearGradient>
 </defs>
 <g id="Camada_x0020_1">
  <metadata id="CorelCorpID_0Corel-Layer"/>
  <g>
  </g>
  <g style="clip-path:url(#id0)">
   <g>
    <rect class="fil0" width="512" height="512" rx="108" ry="108"/>
    <path class="fil1" d="M214.73 364.09c6.4,1.45 7.01,3.92 21.65,6.2 22.61,3.53 46.89,-2.69 64.92,-15.11 12.46,-8.59 20.31,-15.41 29.08,-25.94 4.08,-4.9 24.11,-26.55 12.77,-36.37 -6.95,-6.02 -12.59,-1.79 -17.09,3.91 -11.53,14.62 -22.41,30.17 -42.98,39.6 -6.74,3.09 -12.56,5.41 -21.16,6.26 -8.43,0.84 -17.02,-1.43 -23.11,-4.15 -10.37,-4.64 -20.42,-18.16 -25.81,-29.66 -12.28,-26.17 -6.67,-67 4.33,-92.79 7.73,-18.1 31.55,-56.99 56.73,-52.93 8.06,1.3 12.67,5.94 14.98,12.61 2.86,8.24 1.22,14.67 -1.43,22.63 -6.17,18.52 11.48,25.25 24,5.94 14.5,-22.36 3.44,-53.22 -22.53,-60.5 -11.07,-3.1 -23.24,-4.14 -34.63,-1.75 -6.99,1.47 -11.31,3.25 -17.9,6.45 -16.45,7.96 -28.74,19.6 -39.56,32.96 -20.06,24.76 -30.06,56.75 -31.46,88.81 -0.37,8.48 0.2,15.59 1.16,23.49 0.92,7.62 3.07,12.72 4.59,19.14 2.51,10.57 11.36,23.23 16.94,29.99 10.71,12.98 25.47,19.98 26.51,21.21z"/>
   </g>
  </g>
  <polygon class="fil2" points="0,0 512,0 512,512 0,512 "/>
 </g>
</svg>
