<?xml version="1.0" encoding="UTF-8"?>
<!DOCTYPE svg PUBLIC "-//W3C//DTD SVG 1.1//EN" "http://www.w3.org/Graphics/SVG/1.1/DTD/svg11.dtd">
<!-- Creator: CorelDRAW 2020 (64 Bit) -->
<svg xmlns="http://www.w3.org/2000/svg" xml:space="preserve" width="512px" height="512px" version="1.1" style="shape-rendering:geometricPrecision; text-rendering:geometricPrecision; image-rendering:optimizeQuality; fill-rule:evenodd; clip-rule:evenodd"
viewBox="0 0 512 512"
 xmlns:xlink="http://www.w3.org/1999/xlink"
 xmlns:xodm="http://www.corel.com/coreldraw/odm/2003">
 <defs>
  <style type="text/css">
   <![CDATA[
    .fil1 {fill:black;fill-rule:nonzero;fill-opacity:0.050980}
    .fil2 {fill:black;fill-rule:nonzero;fill-opacity:0.070588}
    .fil4 {fill:url(#id0);fill-rule:nonzero}
    .fil3 {fill:url(#id1);fill-rule:nonzero}
    .fil0 {fill:url(#id2);fill-rule:nonzero}
   ]]>
  </style>
  <linearGradient id="id0" gradientUnits="userSpaceOnUse" x1="284.96" y1="228.37" x2="214.16" y2="299.16">
   <stop offset="0" style="stop-opacity:1; stop-color:#F5FCFF"/>
   <stop offset="0.309804" style="stop-opacity:1; stop-color:#F5FCFF"/>
   <stop offset="0.709804" style="stop-opacity:1; stop-color:#D3E6D3"/>
   <stop offset="0.870588" style="stop-opacity:1; stop-color:#A4CBA5"/>
   <stop offset="1" style="stop-opacity:1; stop-color:#A4CBA5"/>
  </linearGradient>
  <linearGradient id="id1" gradientUnits="userSpaceOnUse" x1="241.78" y1="497.78" x2="256" y2="312.89">
   <stop offset="0" style="stop-opacity:1; stop-color:#80E81F"/>
   <stop offset="0.258824" style="stop-opacity:1; stop-color:#71DF21"/>
   <stop offset="1" style="stop-opacity:1; stop-color:#05A333"/>
  </linearGradient>
  <linearGradient id="id2" gradientUnits="userSpaceOnUse" x1="298.67" y1="14.22" x2="241.78" y2="327.11">
   <stop offset="0" style="stop-opacity:1; stop-color:#80E81F"/>
   <stop offset="0.341176" style="stop-opacity:1; stop-color:#67D326"/>
   <stop offset="1" style="stop-opacity:1; stop-color:#088242"/>
  </linearGradient>
 </defs>
 <g id="Camada_x0020_1">
  <metadata id="CorelCorpID_0Corel-Layer"/>
  <g id="icons8-coreldraw-2021-512.svg">
   <path class="fil0" d="M341.33 512l-170.66 0c-94.25,0 -170.67,-76.42 -170.67,-170.67l0 -170.66c0,-94.25 76.42,-170.67 170.67,-170.67l341.33 0 0 341.33c0,94.25 -76.42,170.67 -170.67,170.67z"/>
   <polygon class="fil1" points="0,369.78 512,369.78 512,284.44 0,284.44 "/>
   <polygon class="fil2" points="0,384 512,384 512,298.67 0,298.67 "/>
   <path class="fil3" d="M341.33 512l-170.66 0c-94.25,0 -170.67,-76.42 -170.67,-170.67l0 -28.44 512 0 0 28.44c0,94.25 -76.42,170.67 -170.67,170.67z"/>
   <path class="fil1" d="M404.82 348.84l0 0 -4.93 -27.94 -229.93 -229.93c-10.76,-10.76 -29.5,-10.76 -40.22,0l-50.3 50.27c-5.37,5.38 -8.33,12.53 -8.33,20.14 0,7.59 2.96,14.73 8.33,20.08l229.99 230 109.64 18.34 -14.25 -80.96z"/>
   <path class="fil2" d="M393.27 324.35l-228.35 -228.37c-8.06,-8.04 -22.13,-8.04 -30.16,0l-50.29 50.28c-4.04,4.03 -6.25,9.4 -6.25,15.11 0,5.7 2.22,11.05 6.25,15.07l228.38 228.4 39.46 6.61 0 -0.01 58 9.7 -17.04 -96.79z"/>
   <path class="fil4" d="M395.55 378.24l6.03 34.2 -34.46 -5.76 28.43 -28.44zm-306.05 -206.83l226.77 226.77 33.61 5.62 42.67 -42.67 -5.88 -33.35 -226.77 -226.77c-5.56,-5.56 -14.56,-5.56 -20.11,0l-50.29 50.29c-5.56,5.54 -5.56,14.56 0,20.11z"/>
  </g>
 </g>
</svg>
